<svg width="32" height="32" viewBox="0 0 32 32" fill="none" xmlns="http://www.w3.org/2000/svg">
    <path d="M4 24C5.10457 24 6 23.1046 6 22C6 20.8954 5.10457 20 4 20C2.89543 20 2 20.8954 2 22C2 23.1046 2.89543 24 4 24Z" fill="black"/>
    <path d="M13.5 30C11.9884 29.9979 10.4991 29.6361 9.15495 28.9446C7.81084 28.253 6.65057 27.2516 5.77 26.023L7.396 24.859C8.09128 25.8293 9.00746 26.6202 10.0688 27.1663C11.1302 27.7125 12.3063 27.9983 13.5 28C17.469 28 20.758 24.9 20.987 20.942L22.984 21.058C22.694 26.072 18.527 30 13.5 30Z" fill="black"/>
    <path d="M28 25C29.1046 25 30 24.1046 30 23C30 21.8954 29.1046 21 28 21C26.8954 21 26 21.8954 26 23C26 24.1046 26.8954 25 28 25Z" fill="black"/>
    <path d="M30.641 19.095L28.717 18.55C28.9053 17.883 29.0006 17.1931 29 16.5C29 12.365 25.636 9.00002 21.5 9.00002C20.4351 8.99741 19.382 9.22351 18.412 9.66302L17.588 7.84102C18.8168 7.28389 20.1508 6.9971 21.5 7.00002C26.738 7.00002 31 11.262 31 16.5C31 17.38 30.88 18.254 30.641 19.095ZM20.414 14.585L17.414 11.585C17.037 11.209 16.534 11 16 11C15.466 11 14.963 11.208 14.586 11.586L11.586 14.586C11.196 14.976 11 15.488 11 16C11 16.512 11.196 17.024 11.586 17.414L14.586 20.414C14.963 20.792 15.466 21 16 21C16.534 21 17.037 20.792 17.414 20.414L20.414 17.414C20.804 17.024 21 16.512 21 16C21 15.488 20.804 14.976 20.414 14.586M16 19L13 16L16 13L19 16L16 19Z" fill="black"/>
    <path d="M16 5C17.1046 5 18 4.10457 18 3C18 1.89543 17.1046 1 16 1C14.8954 1 14 1.89543 14 3C14 4.10457 14.8954 5 16 5Z" fill="black"/>
    <path d="M8.025 19.882C6.50592 19.072 5.23577 17.8641 4.35059 16.3876C3.46542 14.911 2.99855 13.2215 3 11.5C3 6.47299 6.928 2.30699 11.942 2.01599L12.058 4.01299C10.4267 4.11039 8.87183 4.73779 7.62977 5.79981C6.38771 6.86184 5.5264 8.30038 5.1768 9.89675C4.82719 11.4931 5.00841 13.16 5.69291 14.6439C6.3774 16.1279 7.52773 17.3477 8.969 18.118L8.025 19.882Z" fill="black"/>
    <path d="M4 24C5.10457 24 6 23.1046 6 22C6 20.8954 5.10457 20 4 20C2.89543 20 2 20.8954 2 22C2 23.1046 2.89543 24 4 24Z" fill="black"/>
    <path d="M13.5 30C11.9885 29.9979 10.4991 29.6361 9.15497 28.9446C7.81086 28.253 6.65059 27.2516 5.77002 26.023L7.39602 24.859C8.0913 25.8293 9.00749 26.6202 10.0689 27.1663C11.1302 27.7125 12.3064 27.9983 13.5 28C17.469 28 20.758 24.9 20.987 20.942L22.984 21.058C22.694 26.072 18.527 30 13.5 30Z" fill="black"/>
    <path d="M28 25C29.1046 25 30 24.1046 30 23C30 21.8954 29.1046 21 28 21C26.8954 21 26 21.8954 26 23C26 24.1046 26.8954 25 28 25Z" fill="black"/>
    <path d="M30.641 19.095L28.717 18.55C28.9053 17.8829 29.0006 17.1931 29 16.5C29 12.365 25.636 8.99996 21.5 8.99996C20.4351 8.99735 19.382 9.22345 18.412 9.66296L17.588 7.84096C18.8168 7.28383 20.1508 6.99704 21.5 6.99996C26.738 6.99996 31 11.262 31 16.5C31 17.38 30.88 18.254 30.641 19.095ZM20.414 14.585L17.414 11.585C17.037 11.209 16.534 11 16 11C15.466 11 14.963 11.208 14.586 11.586L11.586 14.586C11.196 14.976 11 15.488 11 16C11 16.512 11.196 17.024 11.586 17.414L14.586 20.414C14.963 20.792 15.466 21 16 21C16.534 21 17.037 20.792 17.414 20.414L20.414 17.414C20.804 17.024 21 16.512 21 16C21 15.488 20.804 14.976 20.414 14.586M16 19L13 16L16 13L19 16L16 19Z" fill="black"/>
    <path d="M8.025 19.882C6.50592 19.072 5.23577 17.8641 4.35059 16.3876C3.46542 14.911 2.99855 13.2215 3 11.5C3 6.47299 6.928 2.30699 11.942 2.01599L12.058 4.01299C10.4267 4.11039 8.87183 4.73779 7.62977 5.79981C6.38771 6.86184 5.5264 8.30038 5.1768 9.89675C4.82719 11.4931 5.00841 13.16 5.69291 14.6439C6.3774 16.1279 7.52773 17.3477 8.969 18.118L8.025 19.882Z" fill="black"/>
</svg>
